<svg version="1.2" xmlns="http://www.w3.org/2000/svg" viewBox="0 0 138 138" width="20" height="20">
	<title>white-spiderseo-logo-svg</title>
	<style>
		.s0 { fill: #fafafa } 
		.s1 { fill: none;stroke: #231f20 } 
		.s2 { fill: #fafafa;stroke: #231f20 } 
	</style>
	<g id="Spider_Seo_2">
		<path id="Path_82" class="s0" d="m6.5 44.9q0 0 0 0-0.1-0.1-0.1-0.1 0-0.1 0-0.1 0-0.1 0-0.1c-0.2-0.4-0.1-0.8 0-1.2 0.2-0.4 0.5-0.7 0.8-0.9 0.4-0.1 0.8-0.2 1.2-0.1 0.4 0.1 0.8 0.4 1 0.7q0 0.1 0 0.1 0 0 0.1 0 0 0.1 0 0.1 0 0 0 0 0.2 0.4 0.5 0.9c1.9 3.9 3.4 8.1 4.4 12.4 1.1 4.2 1.6 8.6 1.6 13 0.1 4.4-0.3 8.8-1.3 13.1-0.9 4.3-2.3 8.5-4.2 12.5q-0.2 0.6-0.5 1.1 0 0 0 0 0 0.1-0.1 0.1 0 0 0 0.1 0 0-0.1 0-0.2 0.3-0.4 0.4-0.2 0.2-0.5 0.2-0.3 0.1-0.6 0.1-0.3 0-0.5-0.1-0.3-0.2-0.5-0.4-0.2-0.3-0.3-0.5-0.1-0.3-0.2-0.6 0-0.3 0.1-0.6l0.1-0.4q0.3-0.4 0.5-0.9c1.8-3.7 3.1-7.6 4-11.7 0.9-4 1.3-8.1 1.3-12.2 0-4.1-0.5-8.2-1.5-12.2-1-4-2.4-7.9-4.2-11.6q-0.3-0.5-0.6-1.1z"/>
		<path id="Path_83" class="s0" d="m18 49.9q-0.1-0.2-0.1-0.3-0.1-0.2-0.1-0.3 0-0.2 0-0.3 0-0.2 0-0.3 0-0.1 0.1-0.3 0-0.1 0.1-0.2 0.1-0.1 0.2-0.2 0.1-0.1 0.2-0.2 0.2-0.1 0.4-0.1 0.2 0 0.4 0 0.2 0.1 0.4 0.2 0.2 0.1 0.3 0.3 0 0 0.1 0 0 0.1 0 0.1 0 0.1 0.1 0.1 0 0 0 0.1 0.2 0.3 0.3 0.6 2.1 4.7 3.2 9.8 1.1 5.1 1.2 10.2 0 5.2-1 10.3-1 5.1-3 9.9-0.1 0.4-0.3 0.7 0 0.1-0.1 0.1 0 0.1 0 0.2-0.1 0-0.1 0.1-0.1 0-0.1 0.1-0.1 0.1-0.3 0.2-0.2 0.1-0.4 0.1-0.1 0.1-0.3 0-0.2 0-0.4-0.1-0.2-0.1-0.3-0.2-0.1-0.1-0.2-0.3-0.1-0.2-0.1-0.3-0.1-0.2 0-0.4l0.1-0.8q0.2-0.3 0.3-0.6 1.9-4.5 2.9-9.2 1-4.8 0.9-9.6 0-4.9-1.1-9.6-1-4.8-3-9.2-0.2-0.3-0.3-0.6z"/>
		<path id="Path_84" class="s0" d="m58.1 8.9q0 0 0-0.1 0 0 0.1 0 0-0.1 0-0.1 0.1 0 0.1-0.1c0.3-0.3 0.7-0.5 1.1-0.5 0.4-0.1 0.8 0.1 1.1 0.3 0.4 0.2 0.6 0.6 0.7 1 0.1 0.4 0 0.8-0.2 1.2q0 0 0 0 0 0.1 0 0.1 0 0 0 0-0.1 0.1-0.1 0.1-0.2 0.4-0.5 0.8c-2.6 3.6-5.5 6.9-8.8 9.8-3.3 2.9-6.9 5.5-10.7 7.6-3.9 2.2-8 3.8-12.2 5.1-4.2 1.2-8.6 2-13 2.2q-0.6 0.1-1.1 0.1-0.1 0-0.1 0-0.1-0.1-0.1-0.1-0.1 0-0.1 0 0 0-0.1 0-0.3-0.1-0.5-0.2-0.3-0.1-0.5-0.4-0.1-0.2-0.3-0.4-0.1-0.3-0.1-0.6 0-0.3 0.1-0.6 0.1-0.3 0.3-0.5 0.2-0.2 0.5-0.4 0.2-0.1 0.5-0.2l0.4-0.1q0.5 0 1 0c4.1-0.2 8.2-0.9 12.2-2 3.9-1.1 7.8-2.7 11.4-4.7 3.6-2 7-4.4 10-7.1 3.1-2.8 5.8-5.8 8.2-9.2q0.4-0.5 0.7-1z"/>
		<path id="Path_85" class="s0" d="m56.8 131.4c-2.4-3.4-5.1-6.5-8.2-9.2-3-2.8-6.4-5.2-10-7.2-3.6-1.9-7.4-3.5-11.4-4.6-4-1.2-8.1-1.8-12.2-2q-0.5-0.1-1-0.1h-0.4q-0.3-0.1-0.5-0.2-0.3-0.2-0.5-0.4-0.2-0.3-0.3-0.6-0.1-0.3-0.1-0.6 0-0.2 0.1-0.5 0.2-0.3 0.4-0.5 0.1-0.2 0.4-0.3 0.2-0.2 0.5-0.2 0.1-0.1 0.1-0.1 0.1 0 0.1 0 0 0 0.1 0 0 0 0.1 0 0.5 0 1.1 0c4.4 0.3 8.8 1.1 13 2.3 4.2 1.2 8.3 2.9 12.2 5 3.8 2.2 7.4 4.7 10.7 7.7 3.3 2.9 6.3 6.2 8.8 9.8q0.3 0.4 0.5 0.8 0 0 0.1 0 0 0 0 0.1 0 0 0 0 0 0.1 0 0.1c0.2 0.3 0.3 0.8 0.2 1.2-0.1 0.4-0.3 0.7-0.7 1-0.3 0.2-0.7 0.3-1.1 0.3-0.4-0.1-0.8-0.3-1.1-0.6q0 0-0.1 0 0-0.1 0-0.1-0.1 0-0.1-0.1 0 0 0 0-0.3-0.5-0.7-1z"/>
		<path id="Path_86" class="s0" d="m116.4 32.5q0 0 0.1 0 0 0 0 0 0.1 0 0.1 0 0.1 0.1 0.1 0.1 0.3 0.1 0.6 0.2 0.2 0.2 0.4 0.4 0.2 0.3 0.3 0.5 0.1 0.3 0.1 0.6 0 0.3-0.1 0.6-0.2 0.3-0.4 0.5-0.2 0.2-0.5 0.3-0.3 0.2-0.6 0.2 0 0 0 0 0 0-0.1 0 0 0 0 0-0.1 0-0.1 0-0.5 0-0.9 0c-4.4-0.2-8.8-0.9-13-2.1-4.3-1.1-8.4-2.8-12.3-4.9-3.8-2.1-7.5-4.6-10.8-7.5-3.3-2.9-6.3-6.1-8.9-9.7q-0.3-0.5-0.7-1 0 0 0 0 0-0.1 0-0.1-0.1 0-0.1-0.1 0 0 0-0.1-0.1-0.2-0.1-0.5 0-0.3 0-0.6 0.1-0.3 0.3-0.5 0.1-0.2 0.4-0.4 0.2-0.2 0.5-0.2 0.3-0.1 0.6-0.1 0.3 0.1 0.6 0.2 0.3 0.1 0.5 0.3l0.2 0.3q0.3 0.4 0.6 0.9c2.4 3.3 5.2 6.4 8.3 9.1 3.1 2.8 6.5 5.1 10.1 7.1 3.6 2 7.4 3.5 11.4 4.6 4 1.1 8.1 1.7 12.2 1.9q0.6 0 1.2 0z"/>
		<path id="Rectangle_942" class="s0" d="m63.5 1.5c0-0.8 0.7-1.5 1.5-1.5 0.8 0 1.5 0.7 1.5 1.5v29.6c0 0.9-0.7 1.5-1.5 1.5-0.8 0-1.5-0.6-1.5-1.5z"/>
		<path id="Rectangle_943" class="s0" d="m63.5 110.6c0-0.8 0.7-1.5 1.5-1.5 0.8 0 1.5 0.7 1.5 1.5v25.4c0 0.8-0.7 1.5-1.5 1.5-0.8 0-1.5-0.7-1.5-1.5z"/>
		<path id="Path_87" class="s0" d="m37.3 77.9l4.5-1q0.7 3.8 6.1 3.8 0.5 0 0.9 0 0.5-0.1 1-0.2 0.5-0.1 0.9-0.3 0.5-0.2 0.9-0.5 0.3-0.2 0.5-0.4 0.3-0.3 0.4-0.6 0.2-0.3 0.3-0.7 0.1-0.3 0.1-0.7 0-0.2 0-0.5-0.1-0.2-0.2-0.5 0-0.2-0.1-0.4-0.1-0.3-0.3-0.5-0.2-0.3-0.5-0.5-0.3-0.2-0.6-0.4-0.4-0.2-0.7-0.3-0.4-0.1-0.7-0.2l-4.9-1.2q-0.5-0.1-0.9-0.3-0.5-0.1-1-0.3-0.4-0.2-0.9-0.4-0.4-0.2-0.8-0.5-0.3-0.2-0.6-0.5-0.3-0.2-0.5-0.5-0.3-0.3-0.5-0.7-0.2-0.3-0.3-0.6-0.2-0.4-0.3-0.8-0.2-0.4-0.3-0.8-0.1-0.4-0.1-0.8-0.1-0.4 0-0.8-0.1-0.8 0.1-1.6 0.1-0.7 0.5-1.4 0.3-0.8 0.8-1.4 0.5-0.6 1.1-1.1 0.7-0.5 1.4-0.9 0.8-0.4 1.6-0.6 0.8-0.3 1.7-0.4 0.9-0.1 1.7-0.1 0.8 0 1.5 0.1 0.8 0.1 1.5 0.2 0.8 0.2 1.5 0.5 0.7 0.3 1.3 0.6 0.6 0.3 1.2 0.8 0.5 0.4 0.9 0.9 0.4 0.5 0.7 1.1 0.3 0.6 0.5 1.3l-4.3 1q-1-2.8-4.7-2.8-0.4-0.1-0.8 0-0.5 0-0.9 0.1-0.4 0.1-0.8 0.3-0.4 0.2-0.7 0.5-0.3 0.2-0.5 0.4-0.2 0.3-0.4 0.5-0.1 0.3-0.2 0.7-0.1 0.3-0.1 0.6 0 2.2 3.6 3.1l4.3 1q3.9 1 5.2 2.9 0.3 0.5 0.6 1 0.2 0.5 0.4 1 0.2 0.6 0.3 1.1 0 0.6 0 1.2 0.1 0.8-0.1 1.6-0.2 0.9-0.5 1.6-0.4 0.8-0.9 1.5-0.6 0.6-1.3 1.1-0.8 0.6-1.6 1-0.9 0.4-1.8 0.7-1 0.3-1.9 0.4-1 0.1-1.9 0.1-0.9 0-1.7-0.1-0.9-0.1-1.7-0.3-0.9-0.2-1.7-0.5-0.8-0.3-1.5-0.7-0.7-0.4-1.3-0.9-0.6-0.5-1.1-1.2-0.5-0.6-0.8-1.3-0.4-0.8-0.6-1.5z"/>
		<path id="Path_88" class="s0" d="m78.1 84h-16.5v-25.3h16.3v3.7h-11.7v6.9h9.4v3.7h-9.4v7h11.9z"/>
		<path id="Path_89" fill-rule="evenodd" class="s0" d="m91.1 84.2q-1.1 0.1-2.2-0.2-1.1-0.2-2.1-0.7-1.1-0.5-1.9-1.2-0.9-0.7-1.6-1.6-0.7-1.1-1.2-2.2-0.6-1.1-0.9-2.3-0.4-1.1-0.5-2.4-0.2-1.2-0.2-2.4 0-1.3 0.2-2.5 0.1-1.2 0.5-2.4 0.4-1.2 1-2.3 0.5-1 1.3-2 0.7-0.9 1.6-1.6 0.9-0.7 1.9-1.2 1-0.5 2.1-0.7 1.1-0.2 2.2-0.2 1.2-0.1 2.3 0.2 1.1 0.2 2.1 0.7 1 0.5 1.8 1.2 0.9 0.7 1.6 1.6 0.7 1 1.3 2.1 0.5 1.1 0.9 2.3 0.4 1.1 0.5 2.4 0.2 1.2 0.1 2.4 0.1 1.3-0.1 2.5-0.1 1.3-0.5 2.5-0.4 1.2-1 2.3-0.6 1.1-1.3 2.1-0.7 0.9-1.6 1.6-0.9 0.7-1.9 1.1-1 0.5-2.1 0.7-1.1 0.3-2.3 0.2zm0.1-3.6q0.6 0 1.2-0.2 0.5-0.1 1.1-0.4 0.5-0.2 1-0.6 0.4-0.4 0.8-0.9 1.7-2 1.7-7.3 0-0.9 0-1.8-0.1-0.8-0.3-1.7-0.1-0.9-0.4-1.7-0.3-0.8-0.7-1.6-0.3-0.6-0.8-1.1-0.4-0.4-1-0.8-0.6-0.3-1.2-0.4-0.7-0.2-1.4-0.2-5.8 0-5.8 9.4 0 4.6 1.5 6.9 0.3 0.6 0.8 1 0.5 0.5 1 0.8 0.6 0.3 1.2 0.4 0.6 0.2 1.3 0.2z"/>
		<path id="Path_90" class="s0" d="m58.8 22.3q0.1-0.1 0.2-0.2 0.1-0.1 0.2-0.2 0.2-0.1 0.3-0.2 0.1 0 0.3-0.1 0.1 0 0.2 0 0.2 0 0.3 0 0.2 0 0.3 0 0.1 0.1 0.3 0.2 0.1 0.1 0.2 0.3 0.1 0.1 0.2 0.4 0 0.2 0 0.4 0 0.2-0.1 0.4 0 0-0.1 0 0 0.1 0 0.1 0 0.1 0 0.1-0.1 0.1-0.1 0.1-0.2 0.2-0.4 0.5-3.3 4-7.3 7.3-4.1 3.3-8.7 5.6-4.6 2.4-9.6 3.8-5 1.4-10.2 1.8-0.4 0-0.8 0 0 0-0.1 0-0.1 0-0.1 0-0.1 0-0.2-0.1 0 0-0.1 0-0.2 0-0.3-0.2-0.2-0.1-0.3-0.2-0.1-0.2-0.2-0.3 0-0.2-0.1-0.4 0.1-0.2 0.1-0.4 0.1-0.1 0.2-0.3 0.1-0.1 0.3-0.2 0.1-0.2 0.3-0.2l0.8-0.2q0.3 0 0.6 0 4.9-0.3 9.6-1.6 4.6-1.3 9-3.5 4.3-2.2 8-5.3 3.8-3 6.9-6.8 0.2-0.3 0.4-0.6z"/>
		<path id="Path_91" class="s0" d="m58.4 119.8q-1.6-2-3.3-3.7-1.7-1.8-3.7-3.3-1.9-1.6-4-2.9-2.1-1.3-4.3-2.4-2.1-1.1-4.3-2-2.2-0.8-4.5-1.4-2.3-0.6-4.7-1-2.3-0.4-4.7-0.5-0.3 0-0.6 0l-0.8-0.2q-0.2-0.1-0.3-0.2-0.2-0.1-0.3-0.3-0.1-0.1-0.2-0.3 0-0.2 0-0.4 0-0.2 0-0.3 0.1-0.2 0.2-0.4 0.1-0.1 0.3-0.2 0.1-0.1 0.3-0.2 0.1 0 0.2 0 0 0 0.1 0 0 0 0.1 0 0.1 0 0.1 0 0.4 0 0.8 0 5.2 0.3 10.2 1.7 5 1.4 9.6 3.8 4.6 2.4 8.7 5.7 4 3.2 7.3 7.2 0.2 0.3 0.4 0.6 0 0 0.1 0 0 0.1 0 0.1 0 0.1 0 0.1 0.1 0 0.1 0.1 0.1 0.2 0.1 0.4 0 0.2 0 0.4-0.1 0.2-0.2 0.4-0.1 0.1-0.2 0.3-0.2 0.1-0.3 0.1-0.1 0.1-0.3 0.1-0.1 0-0.2 0-0.2 0-0.3-0.1-0.2 0-0.3-0.1-0.1-0.1-0.3-0.1-0.1-0.1-0.2-0.2-0.1-0.1-0.2-0.3-0.2-0.3-0.4-0.5z"/>
		<path id="Path_92" class="s0" d="m70.7 22.9q1.5 2 3.2 3.7 1.8 1.8 3.7 3.3 1.9 1.6 4 2.9 2.1 1.3 4.3 2.4 2.1 1.1 4.3 1.9 2.3 0.9 4.5 1.5 2.3 0.6 4.7 1 2.3 0.4 4.7 0.5 0.3 0 0.7 0l0.7 0.2q0.2 0.1 0.4 0.2 0.1 0.1 0.2 0.3 0.1 0.1 0.2 0.3 0.1 0.2 0.1 0.3 0 0.2-0.1 0.4-0.1 0.2-0.2 0.3-0.1 0.2-0.3 0.3-0.1 0.1-0.3 0.1-0.1 0.1-0.1 0.1-0.1 0-0.2 0 0 0-0.1 0-0.1 0-0.1 0-0.4 0-0.8 0-2.5-0.2-5-0.6-2.5-0.4-5-1.1-2.4-0.6-4.8-1.5-2.3-1-4.6-2.1-2.3-1.2-4.6-2.6-2.2-1.4-4.3-3.1-2.1-1.6-3.9-3.5-1.9-1.9-3.6-4-0.2-0.2-0.4-0.5 0 0 0-0.1-0.1 0-0.1 0 0-0.1 0-0.1 0-0.1-0.1-0.1-0.1-0.2-0.1-0.4 0-0.2 0-0.4 0.1-0.2 0.2-0.4 0.1-0.2 0.3-0.3 0.1-0.1 0.2-0.1 0.1-0.1 0.3-0.1 0.1 0 0.3 0 0.1 0 0.3 0.1 0.1 0 0.2 0.1 0.2 0 0.3 0.1 0.1 0.1 0.2 0.2 0.1 0.1 0.2 0.2 0.2 0.3 0.5 0.6z"/>
		<path id="Rectangle_944" class="s0" d="m4.3 37.6c-0.7-0.4-1-1.3-0.6-2.1 0.4-0.7 1.3-0.9 2.1-0.5l25 14.1c0.7 0.4 0.9 1.3 0.5 2-0.4 0.7-1.3 1-2 0.6z"/>
		<path id="Rectangle_945" class="s0" d="m99.5 52.5c-0.7 0.4-1.6 0.2-2-0.5-0.4-0.8-0.2-1.7 0.6-2.1l27.1-15.3c0.7-0.4 1.6-0.1 2 0.6 0.4 0.7 0.2 1.6-0.5 2z"/>
		<path id="Rectangle_946" class="s0" d="m28.8 88.7c0.7-0.4 1.7-0.1 2.1 0.6 0.4 0.7 0.1 1.6-0.6 2l-24.4 13.7c-0.7 0.4-1.6 0.2-2-0.5-0.4-0.7-0.1-1.7 0.6-2.1z"/>
		<path id="Path_93" class="s1" d="m90.3 89.3q-1.5 2-3.3 3.7-1.8 1.7-3.9 3-2 1.4-4.3 2.4-2.3 1-4.7 1.6-2.1 0.5-4.3 0.7-2.1 0.3-4.3 0.2-2.2 0-4.3-0.3-2.2-0.4-4.2-1-1.4-0.4-2.7-0.8-1.3-0.5-2.5-1.1-1.3-0.6-2.5-1.3-1.2-0.6-2.3-1.4c-13.5-9-18.8-25.5-13-38.8q0.5-1.1 1-2.2c0.4-0.7 0.9-1.5 1.4-2.2q0.2-0.4 0.4-0.7 0.3-0.3 0.5-0.7 0.3-0.3 0.5-0.6 0.3-0.3 0.5-0.6 0.9-1 1.7-1.8c10.2-9.9 27.1-11.3 40.4-2.4q1.3 0.9 2.5 1.9 1.2 1 2.4 2 1.1 1.1 2.1 2.3 1 1.2 2 2.4 0.2 0.4 0.4 0.7"/>
		<path id="Path_94" class="s0" d="m90.8 89.4q0.3 0 0.6 0 0.3 0 0.6 0.1 0.2 0 0.5 0 0.3 0 0.5 0 0.2 0 0.5-0.1 0.2 0 0.5 0 0.2 0 0.4-0.1-0.3 0.6-0.6 1.1c-8.2 12.1-22.8 18.2-37.1 15.3-14.3-2.9-25.5-14.1-28.3-28.5-2.7-14.3 3.4-28.9 15.6-36.9 12.2-8 28-7.9 40.1 0.3q1.9 1.3 3.7 2.9 1.7 1.5 3.3 3.2 1.5 1.8 2.8 3.7 1.3 1.9 2.3 4-0.4-0.1-0.8-0.2-0.5-0.1-0.9-0.1-0.4-0.1-0.9-0.1-0.4-0.1-0.8-0.1-0.4 0-0.8 0.1-0.3 0-0.7 0-0.4 0.1-0.7 0.1-0.4 0.1-0.8 0.2-0.2-0.3-0.4-0.7-1-1.2-2-2.4-1-1.2-2.1-2.3-1.2-1-2.4-2-1.2-1-2.5-1.9c-13.3-8.9-30.2-7.5-40.4 2.4q-0.8 0.8-1.7 1.8-0.2 0.3-0.5 0.6-0.2 0.3-0.5 0.6-0.2 0.4-0.5 0.7-0.2 0.3-0.4 0.7c-0.5 0.7-1 1.5-1.4 2.2q-0.5 1.1-1 2.2c-5.8 13.3-0.5 29.8 13 38.8q1.1 0.8 2.3 1.4 1.2 0.7 2.5 1.3 1.2 0.6 2.5 1.1 1.3 0.4 2.6 0.8 2.1 0.6 4.3 1 2.1 0.3 4.3 0.3 2.2 0.1 4.3-0.2 2.2-0.2 4.3-0.7 2.4-0.6 4.7-1.6 2.3-1 4.3-2.4 2.1-1.3 3.9-3 1.8-1.7 3.3-3.7 0.2 0 0.5 0.1z"/>
		<path id="Path_95" class="s1" d="m90.3 89.3q-1.5 2-3.3 3.7-1.8 1.7-3.9 3-2 1.4-4.3 2.4-2.3 1-4.7 1.6-2.1 0.5-4.3 0.7-2.1 0.3-4.3 0.2-2.2 0-4.3-0.3-2.2-0.4-4.2-1-1.4-0.4-2.7-0.8-1.3-0.5-2.5-1.1-1.3-0.6-2.5-1.3-1.2-0.6-2.3-1.4c-13.5-9-18.8-25.5-13-38.8q0.5-1.1 1-2.2c0.4-0.7 0.9-1.5 1.4-2.2q0.2-0.4 0.4-0.7 0.3-0.3 0.5-0.7 0.3-0.3 0.5-0.6 0.3-0.3 0.5-0.6 0.9-1 1.7-1.8c10.2-9.9 27.1-11.3 40.4-2.4q1.3 0.9 2.5 1.9 1.2 1 2.4 2 1.1 1.1 2.1 2.3 1 1.2 2 2.4 0.2 0.4 0.4 0.7"/>
		<path id="Path_96" class="s1" d="m87 88.2q-1.3 1.6-2.9 3-1.5 1.4-3.3 2.5-1.8 1.1-3.7 2-2 0.8-4 1.3-1.9 0.5-3.9 0.7-1.9 0.2-3.9 0.2-1.9-0.1-3.9-0.4-1.9-0.3-3.8-0.8-1.2-0.4-2.3-0.8-1.2-0.4-2.3-1-1.2-0.5-2.2-1.1-1.1-0.6-2.2-1.3c-12.1-8.1-16.8-23-11.7-34.9q0.5-1 1-2c0.3-0.7 0.8-1.4 1.2-2q0.2-0.3 0.4-0.6 0.2-0.3 0.4-0.6 0.3-0.3 0.5-0.6 0.2-0.3 0.5-0.6 0.7-0.8 1.5-1.6c9.1-8.9 24.3-10.1 36.3-2.1q1.2 0.8 2.3 1.7 1.1 0.8 2.1 1.8 1 1 2 2 0.9 1.1 1.7 2.2l0.2 0.2"/>
		<path id="Path_97" class="s0" d="m99.4 92.5l9.8 6.5q0.1 0.1 0.2 0.2 0.1 0.1 0.1 0.2 0.1 0.1 0.2 0.2 0 0.1 0 0.3l-3.1 4.6q-0.1 0.1-0.3 0.1-0.1 0-0.2-0.1-0.1 0-0.3 0-0.1-0.1-0.2-0.1l-9.7-6.6q-0.1 0-0.2-0.1-0.1-0.1-0.1-0.2-0.1-0.1-0.2-0.2 0-0.1 0-0.2-0.1-0.1-0.1-0.2 0-0.2 0-0.3 0-0.2 0.1-0.3 0-0.1 0.1-0.3l2.1-3.1q0.2-0.2 0.4-0.4 0.2-0.1 0.5-0.2 0.2 0 0.5 0 0.2 0.1 0.4 0.2z"/>
		<path id="Path_98" class="s2" d="m112.2 98.7l21.5 14.4v0.1q-0.1 1.3-0.5 2.5-0.5 1.3-1.2 2.4-0.6 1-1.5 2-0.9 0.9-2 1.6-0.2 0-0.4 0l-21.8-14.6q-0.1-0.2-0.2-0.5 0-0.4 0-0.7 0-0.3 0.1-0.6 0.1-0.3 0.3-0.5l3.3-5q0.2-0.3 0.5-0.5 0.2-0.2 0.6-0.3 0.3-0.2 0.6-0.2 0.4-0.1 0.7-0.1z"/>
		<g id="Group_9229">
			<path id="Path_99" class="s0" d="m164 73.1q0.3 0.3 0.5 0.6 0.2 0.3 0.4 0.6 0.2 0.4 0.4 0.7 0.2 0.4 0.3 0.7 0.2 0.4 0.3 0.8 0.1 0.5 0.1 0.9 0.1 0.4 0.1 0.8 0 0.4 0 0.9 0.1 1-0.1 2.1-0.3 1-0.7 2-0.4 0.9-1.1 1.8-0.6 0.8-1.4 1.5-0.9 0.8-1.8 1.3-1 0.6-2.1 1-1 0.4-2.2 0.5-1.1 0.2-2.2 0.2-0.6 0-1.2-0.1-0.5 0-1.1-0.1-0.6-0.1-1.2-0.2-0.5-0.2-1.1-0.3-0.5-0.2-1-0.4-0.5-0.2-1-0.4-0.5-0.2-1-0.4-0.5-0.3-0.9-0.6l-1.1 1.8h-1.9l-0.3-11.7h1.9q0.2 0.5 0.3 1 0.2 0.5 0.3 1 0.2 0.5 0.4 1 0.2 0.4 0.4 0.9 0.2 0.5 0.5 0.9 0.2 0.4 0.5 0.8 0.2 0.4 0.5 0.8 0.3 0.4 0.7 0.8 0.3 0.3 0.6 0.6 0.3 0.4 0.7 0.7 0.4 0.2 0.8 0.5 0.4 0.2 0.8 0.4 0.4 0.3 0.9 0.4 0.5 0.2 1 0.3 0.5 0.1 1 0.1 0.5 0.1 1 0.1 0.3 0 0.7 0 0.4-0.1 0.7-0.1 0.4-0.1 0.8-0.2 0.3 0 0.7-0.1 0.3-0.1 0.5-0.3 0.3-0.1 0.5-0.2 0.3-0.2 0.5-0.4 0.3-0.2 0.5-0.4 0.2-0.2 0.3-0.4 0.2-0.2 0.4-0.4 0.1-0.3 0.2-0.5 0.1-0.3 0.2-0.5 0.1-0.3 0.2-0.6 0.1-0.4 0.1-0.7 0.1-0.3 0.1-0.6 0-0.3 0-0.6 0-0.5-0.1-1-0.1-0.5-0.2-1-0.1-0.5-0.4-1-0.2-0.4-0.5-0.8-0.3-0.5-0.7-0.9-0.3-0.4-0.8-0.7-0.4-0.4-0.9-0.7-0.5-0.2-1-0.4-1.6-0.6-3.6-1.4-2-0.8-3.5-1.4-0.6-0.3-1.3-0.7-0.6-0.3-1.1-0.8-0.6-0.4-1.1-0.9-0.5-0.5-1-1-0.4-0.6-0.7-1.3-0.3-0.7-0.5-1.4-0.2-0.7-0.3-1.4-0.1-0.7-0.1-1.4 0-0.5 0.1-1 0-0.4 0.1-0.9 0.1-0.5 0.3-0.9 0.1-0.5 0.3-0.9 0.2-0.4 0.5-0.8 0.2-0.4 0.5-0.8 0.3-0.4 0.6-0.7 0.3-0.4 0.7-0.7 0.3-0.3 0.7-0.6 0.4-0.3 0.8-0.5 0.5-0.3 0.9-0.5 0.4-0.2 0.9-0.3 0.5-0.2 1-0.4 0.4-0.1 0.9-0.2 0.5-0.1 1-0.1 0.5-0.1 1.1-0.1 0.5 0 1 0.1 0.6 0 1.1 0.1 0.5 0.1 1.1 0.2 0.5 0.2 1 0.4 0.4 0.1 0.9 0.3 0.4 0.2 0.8 0.4 0.4 0.2 0.9 0.5 0.4 0.2 0.8 0.5l1-1.7h1.9l0.2 11.3h-2q-0.5-1.9-1.2-3.7-0.1-0.4-0.3-0.8-0.2-0.5-0.4-0.9-0.2-0.4-0.5-0.8-0.2-0.3-0.5-0.7-0.2-0.4-0.5-0.7-0.3-0.3-0.6-0.6-0.3-0.2-0.7-0.5-0.3-0.2-0.7-0.4-0.4-0.3-0.9-0.4-0.4-0.2-0.9-0.3-0.4-0.1-0.9-0.1-0.5-0.1-1-0.1-0.5 0-1 0.1-0.5 0.1-1 0.3-0.5 0.2-1 0.5-0.5 0.2-0.8 0.6-0.4 0.3-0.7 0.7-0.3 0.4-0.6 0.9-0.2 0.5-0.3 1-0.1 0.5-0.1 1 0 0.5 0.1 0.9 0 0.5 0.2 1 0.1 0.5 0.3 0.9 0.2 0.4 0.5 0.8 0.3 0.4 0.6 0.8 0.3 0.3 0.7 0.6 0.4 0.3 0.8 0.6 0.4 0.2 0.9 0.4 0.4 0.2 0.8 0.4 0.5 0.2 0.9 0.4 0.4 0.2 0.9 0.4 0.4 0.1 0.8 0.3 1.7 0.6 3.3 1.3 0.4 0.2 0.7 0.3 0.4 0.2 0.7 0.4 0.4 0.1 0.7 0.3 0.4 0.2 0.7 0.4 0.3 0.2 0.6 0.4 0.3 0.2 0.6 0.5 0.3 0.2 0.6 0.5 0.3 0.2 0.5 0.5z"/>
			<path id="Path_100" fill-rule="evenodd" class="s0" d="m191.5 67.8q0.3 0.5 0.7 0.9 0.3 0.5 0.5 1 0.3 0.5 0.6 1 0.2 0.5 0.4 1.1 0.2 0.6 0.3 1.2 0.2 0.6 0.3 1.3 0.1 0.6 0.1 1.3 0.1 0.6 0.1 1.3 0 0.6-0.1 1.3 0 0.6-0.2 1.3-0.1 0.6-0.3 1.2-0.1 0.7-0.4 1.3-0.2 0.5-0.5 1.1-0.2 0.5-0.5 1-0.3 0.5-0.7 0.9-0.4 0.5-0.8 0.9-0.3 0.4-0.8 0.8-0.4 0.4-0.8 0.7-0.5 0.3-1 0.6-0.4 0.3-0.9 0.5-0.5 0.2-1.1 0.4-0.5 0.2-1 0.3-0.5 0.1-1.1 0.1-0.5 0.1-1 0.1-0.5 0-0.9 0-0.5 0-0.9-0.1-0.5-0.1-0.9-0.2-0.4-0.1-0.9-0.2-0.3-0.1-0.5-0.2-0.3-0.1-0.6-0.3-0.3-0.1-0.6-0.3-0.2-0.1-0.5-0.3h-0.2v7.1q0 0.2 0 0.4 0 0.2 0.1 0.4 0 0.2 0.1 0.3 0.1 0.2 0.1 0.4 0.1 0.1 0.2 0.3 0.2 0.1 0.3 0.2 0.1 0.1 0.3 0.2 0.1 0.1 0.3 0.1 0.2 0.1 0.4 0.2 0.2 0 0.4 0.1 0.2 0 0.4 0.1 0.2 0 0.4 0 0.3 0.1 0.5 0.1 0.2 0.1 0.4 0.1 0.2 0 0.5 0 0.2 0.1 0.4 0.1v1.6h-13.3v-1.6q0.8-0.1 1.5-0.1 0.1-0.1 0.3-0.1 0.2 0 0.3 0 0.2-0.1 0.3-0.1 0.2 0 0.3-0.1 0.2 0 0.4-0.1 0.1-0.1 0.2-0.2 0.2-0.1 0.3-0.2 0.1-0.2 0.2-0.3 0-0.2 0.1-0.4 0-0.1 0.1-0.3 0-0.2 0-0.4 0-0.2 0-0.3v-25.3q0-0.2 0-0.4 0-0.2-0.1-0.3 0-0.2-0.1-0.4 0-0.1-0.1-0.3-0.1-0.2-0.2-0.3-0.1-0.2-0.2-0.3-0.1-0.1-0.3-0.3-0.1-0.1-0.3-0.2-0.1-0.1-0.2-0.1-0.2-0.1-0.3-0.2-0.2 0-0.3-0.1-0.2 0-0.4 0-0.1-0.1-0.3-0.1-0.2 0-0.4-0.1-0.2 0-0.4 0-0.2 0-0.4 0v-1.6l8.1-0.6 0.4 0.3v2.7l0.2 0.1q0.3-0.4 0.7-0.8 0.3-0.3 0.7-0.6 0.4-0.3 0.8-0.6 0.4-0.2 0.9-0.5 0.4-0.2 0.8-0.4 0.5-0.1 1-0.3 0.4-0.1 0.9-0.1 0.5-0.1 1-0.1 0.5 0 1 0 0.5 0.1 1 0.2 0.6 0.1 1 0.3 0.5 0.2 1 0.4 0.5 0.3 0.9 0.5 0.4 0.3 0.8 0.6 0.4 0.3 0.8 0.7 0.3 0.4 0.7 0.7zm-4 17.1q0.3-0.4 0.5-0.8 0.2-0.4 0.4-0.9 0.2-0.4 0.3-0.8 0.2-0.5 0.2-1 0.2-0.5 0.3-1 0.1-0.6 0.1-1.1 0.1-0.6 0.1-1.1 0-0.6 0-1.2 0-0.4 0-0.9 0-0.4-0.1-0.9 0-0.4-0.1-0.9-0.1-0.4-0.2-0.9 0-0.4-0.2-0.8-0.1-0.4-0.2-0.9-0.2-0.4-0.4-0.7-0.2-0.4-0.4-0.8-0.2-0.4-0.4-0.7-0.2-0.3-0.5-0.6-0.3-0.3-0.6-0.5-0.3-0.3-0.6-0.5-0.4-0.2-0.7-0.4-0.4-0.1-0.8-0.2-0.4-0.2-0.9-0.2-0.4-0.1-0.8 0-0.4-0.1-0.8 0-0.4 0-0.8 0.1-0.3 0.1-0.7 0.3-0.4 0.1-0.7 0.3-0.3 0.2-0.6 0.4-0.3 0.3-0.6 0.5-0.2 0.2-0.5 0.5-0.3 0.2-0.5 0.5v14q0.1 0.2 0.2 0.4 0 0.1 0.1 0.3 0.1 0.2 0.2 0.3 0.1 0.2 0.2 0.4 0.1 0.1 0.3 0.3 0.1 0.1 0.2 0.3 0.2 0.1 0.3 0.3 0.2 0.1 0.3 0.3 0.2 0.1 0.4 0.2 0.2 0.2 0.4 0.3 0.2 0.1 0.4 0.2 0.2 0.1 0.4 0.2 0.3 0.1 0.5 0.2 0.3 0.1 0.6 0.1 0.2 0.1 0.5 0.1 0.3 0 0.6 0 0.3 0 0.6 0 0.4-0.1 0.7-0.2 0.3-0.1 0.6-0.2 0.4-0.1 0.7-0.3 0.3-0.2 0.6-0.4 0.3-0.2 0.5-0.5 0.3-0.2 0.5-0.5 0.3-0.3 0.4-0.6z"/>
			<path id="Path_101" class="s0" d="m208.3 88.8h-11.5v-1.6l1.2-0.1q0.1 0 0.2-0.1 0.2 0 0.3 0 0.1 0 0.2 0 0.2-0.1 0.3-0.1 0.1-0.1 0.3-0.1 0.1-0.1 0.3-0.2 0.1-0.1 0.2-0.2 0.1-0.1 0.2-0.3 0.1-0.1 0.1-0.3 0.1-0.2 0.1-0.3 0.1-0.2 0.1-0.4 0-0.2 0-0.4v-14.6q0-0.2 0-0.4 0-0.2-0.1-0.3 0-0.2-0.1-0.4-0.1-0.2-0.1-0.3-0.1-0.2-0.2-0.3-0.1-0.2-0.3-0.3-0.1-0.1-0.2-0.3-0.2-0.1-0.3-0.2-0.2-0.1-0.3-0.1-0.2-0.1-0.4-0.2-0.1 0-0.3-0.1-0.2 0-0.3-0.1-0.2 0-0.4-0.1-0.2 0-0.4 0-0.2-0.1-0.4-0.1-0.2 0-0.4 0v-1.6l8.3-0.6 0.4 0.4v19.3q0 0.2 0 0.4 0 0.2 0.1 0.3 0 0.2 0.1 0.4 0 0.2 0.1 0.3 0.1 0.2 0.2 0.3 0.1 0.1 0.2 0.2 0.2 0.1 0.3 0.2 0.2 0.1 0.3 0.1 0.1 0.1 0.3 0.1 0.1 0.1 0.2 0.1 0.2 0.1 0.3 0.1 0.1 0 0.3 0.1 0.1 0 0.2 0 0.2 0.1 0.3 0.1 0.2 0 0.3 0 0.1 0 0.3 0.1zm-3-33.4q0 0.3-0.1 0.6 0 0.4-0.2 0.7-0.1 0.3-0.2 0.6-0.2 0.2-0.4 0.5-0.2 0.2-0.5 0.4-0.2 0.2-0.5 0.3-0.3 0.2-0.6 0.2-0.3 0.1-0.7 0.1-0.3 0-0.6-0.1-0.3 0-0.5-0.2-0.3-0.1-0.5-0.3-0.3-0.1-0.5-0.4-0.2-0.2-0.4-0.5-0.1-0.2-0.3-0.5-0.1-0.3-0.1-0.6-0.1-0.3-0.1-0.6 0-0.3 0.1-0.6 0-0.3 0.1-0.6 0.2-0.3 0.3-0.6 0.2-0.3 0.4-0.5 0.2-0.2 0.4-0.4 0.3-0.2 0.6-0.3 0.2-0.2 0.5-0.2 0.3-0.1 0.6-0.1 0.4 0 0.7 0.1 0.3 0 0.6 0.1 0.3 0.2 0.5 0.3 0.3 0.2 0.5 0.4 0.2 0.2 0.4 0.5 0.1 0.2 0.2 0.5 0.2 0.3 0.2 0.6 0.1 0.3 0.1 0.6z"/>
			<path id="Path_102" fill-rule="evenodd" class="s0" d="m236.8 88.3l-8.3 0.6-0.4-0.4v-2.2h-0.2q-0.3 0.3-0.7 0.6-0.3 0.4-0.7 0.7-0.4 0.2-0.8 0.5-0.4 0.2-0.9 0.4-0.4 0.3-0.9 0.4-0.4 0.2-0.9 0.3-0.5 0.1-1 0.2-0.5 0-0.9 0-0.5 0-1.1 0-0.5-0.1-0.9-0.2-0.5-0.1-1-0.3-0.5-0.1-0.9-0.4-0.5-0.2-1-0.5-0.4-0.2-0.8-0.6-0.4-0.3-0.8-0.6-0.4-0.4-0.7-0.8-0.4-0.4-0.7-0.9-0.3-0.5-0.6-1-0.3-0.5-0.5-1-0.3-0.6-0.5-1.1-0.2-0.6-0.3-1.2-0.2-0.7-0.3-1.3-0.1-0.7-0.1-1.3-0.1-0.7-0.1-1.3 0-0.7 0.1-1.3 0-0.6 0.1-1.2 0.1-0.6 0.3-1.2 0.2-0.6 0.4-1.2 0.2-0.6 0.5-1.1 0.2-0.5 0.5-1.1 0.3-0.5 0.7-0.9 0.4-0.5 0.8-1 0.3-0.4 0.7-0.7 0.5-0.4 0.9-0.7 0.5-0.4 1-0.6 0.4-0.3 0.9-0.5 0.6-0.3 1.1-0.5 0.5-0.1 1-0.3 0.6-0.1 1.1-0.1 0.6-0.1 1.2-0.1 0.4 0 0.8 0 0.4 0 0.8 0.1 0.4 0 0.8 0.1 0.4 0.1 0.8 0.2 0.4 0.1 0.7 0.2 0.4 0.1 0.7 0.3 0.4 0.1 0.7 0.2 0.4 0.2 0.7 0.4v-8.3q0-0.2 0-0.5-0.1-0.2-0.1-0.4 0-0.3-0.1-0.5-0.1-0.2-0.2-0.5 0-0.1-0.1-0.3-0.1-0.2-0.2-0.4-0.2-0.1-0.3-0.3-0.1-0.1-0.3-0.2-0.2-0.2-0.4-0.3-0.2-0.1-0.5-0.2-0.2 0-0.4-0.1-0.3-0.1-0.5-0.1-0.3 0-0.6-0.1-0.3 0-0.6-0.1-0.3 0-0.7 0-0.3-0.1-0.6-0.1v-1.5l9.7-0.5 0.4 0.4v32q0 0.1 0 0.3 0 0.2 0.1 0.4 0 0.2 0.1 0.3 0 0.2 0.1 0.4 0.1 0.1 0.2 0.3 0.1 0.1 0.2 0.2 0.2 0.2 0.3 0.3 0.1 0.1 0.3 0.2 0.1 0.1 0.3 0.1 0.1 0.1 0.3 0.1 0.2 0.1 0.3 0.1 0.2 0 0.4 0 0.9 0.1 1.6 0.1zm-8.7-4.1v-13.9q-0.1-0.2-0.2-0.4 0-0.1-0.1-0.3-0.1-0.2-0.2-0.3-0.1-0.2-0.2-0.4-0.1-0.1-0.2-0.3-0.1-0.2-0.3-0.4-0.1-0.1-0.2-0.3-0.2-0.1-0.3-0.3-0.2-0.1-0.4-0.3-0.2-0.1-0.4-0.2-0.2-0.2-0.4-0.3-0.2-0.1-0.5-0.2-0.2-0.1-0.5-0.2-0.3 0-0.5-0.1-0.3 0-0.6-0.1-0.3 0-0.6 0-0.3 0-0.7 0.1-0.3 0-0.6 0.1-0.4 0.1-0.7 0.2-0.3 0.2-0.6 0.4-0.3 0.2-0.6 0.4-0.3 0.3-0.6 0.5-0.3 0.3-0.5 0.6-0.3 0.3-0.5 0.6-0.2 0.4-0.4 0.8-0.2 0.4-0.4 0.9-0.2 0.4-0.3 0.8-0.2 0.5-0.3 0.9-0.1 0.6-0.2 1.2-0.1 0.6-0.2 1.1 0 0.6-0.1 1.2 0 0.6 0 1.2 0 0.4 0 0.9 0.1 0.4 0.1 0.9 0.1 0.5 0.1 0.9 0.1 0.5 0.2 0.9 0.1 0.4 0.2 0.8 0.2 0.4 0.3 0.8 0.2 0.4 0.4 0.8 0.2 0.3 0.4 0.7 0.2 0.3 0.5 0.6 0.2 0.3 0.5 0.6 0.2 0.3 0.5 0.5 0.3 0.2 0.7 0.5 0.3 0.2 0.7 0.3 0.4 0.2 0.8 0.3 0.4 0.1 0.8 0.1 0.4 0.1 0.8 0.1 0.4 0 0.8-0.1 0.4 0 0.8-0.1 0.4-0.1 0.8-0.3 0.4-0.2 0.8-0.4 0.2-0.2 0.5-0.4 0.3-0.2 0.6-0.4 0.2-0.3 0.5-0.5 0.2-0.3 0.5-0.5z"/>
			<path id="Path_103" fill-rule="evenodd" class="s0" d="m259.6 83.2q-0.4 0.7-0.8 1.3-0.4 0.6-0.9 1.2-0.6 0.6-1.1 1.1-0.6 0.5-1.2 0.9-0.7 0.4-1.4 0.7-0.6 0.4-1.4 0.6-0.7 0.2-1.5 0.3-0.7 0.1-1.5 0.1-0.6 0-1.3-0.1-0.6 0-1.2-0.1-0.7-0.2-1.3-0.4-0.6-0.2-1.2-0.4-0.5-0.3-1-0.6-0.5-0.2-0.9-0.6-0.5-0.3-0.9-0.7-0.4-0.4-0.8-0.9-0.3-0.4-0.6-0.9-0.3-0.5-0.6-1-0.2-0.5-0.4-1-0.3-0.5-0.4-1.1-0.2-0.6-0.3-1.2-0.1-0.6-0.2-1.2-0.1-0.6-0.2-1.2 0-0.7 0-1.3 0-0.5 0-1.1 0.1-0.6 0.2-1.2 0.1-0.5 0.2-1.1 0.2-0.6 0.3-1.1 0.2-0.6 0.4-1.1 0.3-0.5 0.5-1 0.3-0.5 0.6-1 0.3-0.5 0.7-0.9 0.3-0.4 0.7-0.8 0.4-0.4 0.8-0.8 0.5-0.3 0.9-0.6 0.5-0.3 1-0.6 0.5-0.2 1.1-0.4 0.5-0.2 1.1-0.4 0.6-0.1 1.2-0.2 0.6 0 1.2 0 0.5 0 1.1 0 0.6 0.1 1.1 0.2 0.6 0.1 1.1 0.2 0.6 0.2 1.1 0.4 0.4 0.2 0.8 0.4 0.5 0.3 0.8 0.5 0.4 0.3 0.8 0.6 0.3 0.4 0.6 0.7 0.3 0.4 0.5 0.8 0.3 0.3 0.5 0.7 0.2 0.4 0.4 0.9 0.1 0.4 0.3 0.8 0.1 0.5 0.2 1 0.1 0.5 0.2 1 0 0.5 0.1 1 0 0.5 0 1v1.6h-15.7q0 0.5 0 1 0 0.6 0.1 1.1 0 0.5 0.1 1.1 0.1 0.5 0.2 1 0.1 0.5 0.3 0.9 0.1 0.4 0.3 0.9 0.2 0.4 0.4 0.8 0.2 0.4 0.4 0.8 0.3 0.3 0.6 0.6 0.2 0.3 0.5 0.6 0.3 0.3 0.7 0.5 0.3 0.3 0.7 0.5 0.4 0.2 0.9 0.3 0.4 0.2 0.9 0.3 0.4 0.1 0.9 0.1 0.4 0.1 0.9 0.1 0.5 0 1-0.1 0.5 0 0.9-0.2 0.5-0.1 0.9-0.3 0.5-0.2 0.9-0.4 0.5-0.4 0.9-0.8 0.4-0.4 0.8-0.9 0.4-0.4 0.7-0.9 0.3-0.5 0.6-1.1zm-5.3-9q0-0.4 0-0.7-0.1-0.4-0.1-0.7 0-0.4-0.1-0.8 0-0.3-0.1-0.7 0-0.3-0.1-0.6 0-0.4-0.1-0.7-0.1-0.3-0.2-0.6-0.1-0.3-0.3-0.6-0.1-0.3-0.3-0.6-0.1-0.2-0.3-0.4-0.2-0.3-0.4-0.5-0.3-0.2-0.5-0.3-0.3-0.2-0.6-0.4-0.3-0.1-0.6-0.2-0.3-0.1-0.6-0.1-0.4-0.1-0.7 0-0.6 0-1.2 0.1-0.6 0.1-1.1 0.4-0.6 0.3-1 0.7-0.5 0.4-0.9 0.9-0.4 0.6-0.8 1.3-0.3 0.7-0.6 1.4-0.2 0.8-0.3 1.6-0.1 0.7-0.1 1.5z"/>
			<path id="Path_104" class="s0" d="m280 68.1q0 0.3 0 0.5-0.1 0.3-0.2 0.6 0 0.3-0.1 0.5-0.2 0.3-0.3 0.5-0.2 0.3-0.4 0.5-0.2 0.1-0.4 0.3-0.3 0.1-0.5 0.1-0.3 0.1-0.6 0.1-0.3 0-0.5 0-0.3-0.1-0.6-0.2-0.2-0.1-0.5-0.2-0.2-0.1-0.4-0.3-0.2-0.2-0.3-0.3-0.2-0.2-0.3-0.4 0-0.2-0.1-0.4 0-0.2-0.1-0.5 0-0.1 0.1-0.2 0-0.1 0-0.2 0-0.2 0-0.3 0-0.1 0-0.2 0.1-0.4 0.2-0.9-0.4 0-0.7 0.1-0.4 0.1-0.7 0.2-0.3 0.1-0.7 0.3-0.3 0.1-0.6 0.3-0.4 0.3-0.7 0.6-0.4 0.3-0.7 0.6-0.3 0.3-0.6 0.7-0.3 0.4-0.5 0.8v13.8q0 0.1 0 0.3 0 0.2 0 0.4 0.1 0.1 0.1 0.3 0.1 0.2 0.2 0.3 0.1 0.2 0.2 0.3 0.1 0.1 0.2 0.2 0.2 0.1 0.3 0.2 0.2 0.1 0.3 0.1 0.2 0.1 0.4 0.1 0.2 0.1 0.4 0.2 0.2 0 0.4 0 0.2 0.1 0.4 0.1 0.9 0.1 1.6 0.2v1.5h-12.5v-1.5l1.1-0.1q0.2 0 0.3 0 0.1-0.1 0.3-0.1 0.1 0 0.2 0 0.1-0.1 0.3-0.1 0.1-0.1 0.3-0.1 0.1-0.1 0.2-0.2 0.2-0.1 0.3-0.2 0.1-0.1 0.2-0.3 0.1-0.1 0.1-0.3 0.1-0.2 0.1-0.3 0.1-0.2 0.1-0.4 0-0.2 0-0.4v-14.6q0-0.2 0-0.4-0.1-0.2-0.1-0.4 0-0.2-0.1-0.3-0.1-0.2-0.2-0.4 0-0.2-0.1-0.3-0.1-0.2-0.3-0.3-0.1-0.2-0.2-0.3-0.2-0.1-0.3-0.2-0.2-0.1-0.3-0.2-0.1 0-0.3-0.1-0.1 0-0.2-0.1-0.2 0-0.3-0.1-0.2 0-0.4 0-0.1 0-0.3-0.1-0.2 0-0.3 0-0.2 0-0.4 0v-1.6l7.9-0.6 0.4 0.4v3.3h0.1q0.3-0.4 0.7-0.8 0.4-0.5 0.8-0.8 0.4-0.4 0.9-0.7 0.4-0.4 0.9-0.6 0.4-0.3 0.8-0.4 0.4-0.2 0.8-0.4 0.4-0.1 0.9-0.2 0.4 0 0.8 0 0.4-0.1 0.7 0 0.4 0.1 0.7 0.2 0.3 0.1 0.6 0.3 0.3 0.2 0.5 0.4 0.3 0.3 0.5 0.6 0.1 0.3 0.3 0.7 0.1 0.3 0.1 0.7 0.1 0.3 0.1 0.7z"/>
			<path id="Path_105" class="s0" d="m315 73.1q0.2 0.3 0.5 0.6 0.2 0.3 0.4 0.6 0.2 0.4 0.4 0.7 0.1 0.4 0.3 0.7 0.1 0.4 0.2 0.8 0.1 0.5 0.2 0.9 0 0.4 0.1 0.8 0 0.4 0 0.9 0 1-0.2 2.1-0.2 1-0.6 2-0.5 0.9-1.1 1.8-0.7 0.8-1.5 1.5-0.8 0.8-1.8 1.3-1 0.6-2 1-1.1 0.4-2.2 0.5-1.1 0.2-2.3 0.2-0.5 0-1.1-0.1-0.6 0-1.2-0.1-0.6-0.1-1.1-0.2-0.6-0.2-1.1-0.3-0.6-0.2-1.1-0.4-0.5-0.2-1-0.4-0.5-0.2-0.9-0.4-0.5-0.3-1-0.6l-1 1.8h-1.9l-0.4-11.7h2q0.1 0.5 0.3 1 0.1 0.5 0.3 1 0.2 0.5 0.4 1 0.2 0.4 0.4 0.9 0.2 0.5 0.4 0.9 0.2 0.4 0.5 0.8 0.3 0.4 0.6 0.8 0.3 0.4 0.6 0.8 0.3 0.3 0.6 0.6 0.4 0.4 0.7 0.7 0.4 0.2 0.8 0.5 0.4 0.2 0.8 0.4 0.5 0.3 0.9 0.4 0.5 0.2 1 0.3 0.5 0.1 1 0.1 0.5 0.1 1 0.1 0.4 0 0.7 0 0.4-0.1 0.8-0.1 0.3-0.1 0.7-0.2 0.4 0 0.7-0.1 0.3-0.1 0.6-0.3 0.2-0.1 0.5-0.2 0.2-0.2 0.5-0.4 0.2-0.2 0.4-0.4 0.2-0.2 0.4-0.4 0.1-0.2 0.3-0.4 0.1-0.3 0.3-0.5 0.1-0.3 0.2-0.5 0.1-0.3 0.1-0.6 0.1-0.4 0.1-0.7 0.1-0.3 0.1-0.6 0-0.3 0-0.6 0-0.5 0-1-0.1-0.5-0.3-1-0.1-0.5-0.3-1-0.2-0.4-0.5-0.8-0.3-0.5-0.7-0.9-0.4-0.4-0.8-0.7-0.5-0.4-1-0.7-0.4-0.2-1-0.4-1.5-0.6-3.6-1.4-2-0.8-3.4-1.4-0.7-0.3-1.3-0.7-0.6-0.3-1.2-0.8-0.6-0.4-1.1-0.9-0.5-0.5-0.9-1-0.4-0.6-0.8-1.3-0.3-0.7-0.5-1.4-0.2-0.7-0.3-1.4-0.1-0.7 0-1.4 0-0.5 0-1 0.1-0.4 0.2-0.9 0.1-0.5 0.2-0.9 0.2-0.5 0.4-0.9 0.2-0.4 0.4-0.8 0.3-0.4 0.6-0.8 0.2-0.4 0.6-0.7 0.3-0.4 0.6-0.7 0.4-0.3 0.8-0.6 0.4-0.3 0.8-0.5 0.4-0.3 0.8-0.5 0.5-0.2 0.9-0.3 0.5-0.2 1-0.4 0.5-0.1 1-0.2 0.5-0.1 1-0.1 0.5-0.1 1-0.1 0.5 0 1.1 0.1 0.5 0 1 0.1 0.6 0.1 1.1 0.2 0.5 0.2 1 0.4 0.4 0.1 0.9 0.3 0.4 0.2 0.8 0.4 0.5 0.2 0.9 0.5 0.4 0.2 0.8 0.5l1-1.7h1.9l0.2 11.3h-1.9q-0.6-1.9-1.2-3.7-0.2-0.4-0.4-0.8-0.2-0.5-0.4-0.9-0.2-0.4-0.4-0.7-0.3-0.4-0.6-0.8-0.2-0.4-0.5-0.7-0.3-0.3-0.6-0.6-0.3-0.2-0.7-0.5-0.3-0.2-0.7-0.4-0.4-0.3-0.8-0.4-0.5-0.2-1-0.3-0.4-0.1-0.9-0.1-0.5-0.1-0.9-0.1-0.6 0-1.1 0.1-0.5 0.1-1 0.3-0.5 0.2-1 0.5-0.4 0.2-0.8 0.6-0.4 0.3-0.7 0.7-0.3 0.5-0.5 0.9-0.2 0.5-0.3 1-0.2 0.5-0.1 1-0.1 0.5 0 1 0 0.4 0.2 0.9 0.1 0.5 0.3 0.9 0.2 0.5 0.5 0.9 0.3 0.3 0.6 0.7 0.4 0.3 0.7 0.6 0.4 0.4 0.8 0.6 0.5 0.3 0.9 0.5 0.4 0.2 0.8 0.3 0.5 0.2 0.9 0.4 0.4 0.2 0.9 0.4 0.4 0.1 0.8 0.3 1.7 0.6 3.3 1.3 0.4 0.2 0.7 0.3 0.4 0.2 0.7 0.4 0.4 0.1 0.7 0.3 0.4 0.2 0.7 0.4 0.3 0.2 0.7 0.4 0.3 0.2 0.6 0.5 0.3 0.2 0.5 0.5 0.3 0.2 0.6 0.5z"/>
			<path id="Path_106" class="s0" d="m348.5 78.7l-0.6 10.1h-28.4v-1.7q0.7-0.1 1.9-0.3 0.2 0 0.4 0 0.2 0 0.4-0.1 0.2 0 0.4-0.1 0.2 0 0.4-0.1 0.2 0 0.3-0.1 0.2-0.1 0.3-0.3 0.2-0.1 0.3-0.2 0.1-0.2 0.2-0.3 0.1-0.2 0.1-0.4 0.1-0.1 0.1-0.3 0.1-0.2 0.1-0.4 0-0.2 0-0.4v-24.5q0-0.2 0-0.4 0-0.2-0.1-0.3 0-0.2-0.1-0.4 0-0.2-0.1-0.3-0.1-0.2-0.2-0.3-0.1-0.2-0.2-0.3-0.2-0.2-0.4-0.3-0.1-0.1-0.3-0.1-0.2-0.1-0.4-0.2-0.2-0.1-0.4-0.2-0.3 0-0.5-0.1-0.2 0-0.4-0.1-0.2 0-0.5-0.1-0.2 0-0.4-0.1-0.2 0-0.4 0-0.3 0-0.5-0.1v-1.7h26.4v8.2h-1.8q-0.1-0.5-0.3-1-0.2-0.5-0.5-1-0.3-0.5-0.6-1-0.3-0.4-0.6-0.8-0.3-0.5-0.6-0.8-0.4-0.4-0.8-0.7-0.3-0.2-0.8-0.5-0.4-0.2-0.9-0.3-0.7-0.1-1.8-0.1-1-0.1-2.3-0.1h-5.4v13.6h3.9q0.3 0 0.7 0 0.3 0 0.7-0.1 0.3 0 0.6-0.1 0.4-0.1 0.7-0.2 0.2-0.1 0.4-0.2 0.2-0.1 0.4-0.2 0.2-0.2 0.4-0.4 0.1-0.1 0.3-0.3 0.1-0.2 0.3-0.5 0.1-0.2 0.2-0.4 0.1-0.3 0.2-0.5 0.1-0.2 0.2-0.5 0.1-0.3 0.2-0.5 0-0.3 0.1-0.6 0.1-0.3 0.1-0.5 0-0.3 0.1-0.6h1.8v13.4h-1.8q0-0.3-0.1-0.6 0-0.3-0.1-0.7-0.1-0.3-0.1-0.6-0.1-0.3-0.2-0.6-0.1-0.2-0.2-0.5-0.1-0.2-0.2-0.4-0.1-0.3-0.2-0.5-0.2-0.2-0.3-0.4-0.2-0.2-0.4-0.4-0.1-0.2-0.4-0.4-0.2-0.1-0.4-0.3-0.3-0.1-0.5-0.2-0.3 0-0.6-0.1-0.3-0.1-0.7-0.1-0.3 0-0.6 0-0.3-0.1-0.6 0h-3.9v10.2q0 0.3 0 0.6 0 0.3 0.1 0.6 0 0.3 0 0.6 0.1 0.3 0.1 0.6 0.1 0.2 0.2 0.4 0 0.2 0.1 0.4 0.1 0.1 0.3 0.3 0.1 0.1 0.3 0.3 0.2 0.1 0.4 0.2 0.2 0.1 0.4 0.2 0.2 0 0.4 0.1 0.3 0 0.5 0 0.4 0.1 0.8 0.1 0.3 0 0.7 0.1 0.4 0 0.8 0 0.4 0 0.8 0h2.1q0.2 0 0.5 0 0.3 0 0.6 0 0.2-0.1 0.5-0.1 0.3 0 0.6 0 0.2 0 0.4-0.1 0.3 0 0.5-0.1 0.2 0 0.5-0.1 0.2 0 0.4-0.1 0.2 0 0.4-0.1 0.2 0 0.4-0.1 0.1-0.1 0.3-0.2 0.2-0.1 0.3-0.3 0.4-0.4 0.7-0.8 0.3-0.4 0.6-0.8 0.3-0.5 0.6-0.9 0.2-0.5 0.5-1 0.2-0.4 0.4-0.8 0.2-0.4 0.4-0.9 0.2-0.4 0.4-0.8 0.2-0.5 0.3-0.9z"/>
			<path id="Path_107" fill-rule="evenodd" class="s0" d="m379.6 58.7q0.6 0.6 1.1 1.2 0.5 0.7 0.9 1.4 0.5 0.7 0.9 1.5 0.3 0.8 0.6 1.6 0.3 0.8 0.6 1.7 0.2 1 0.4 1.9 0.2 0.9 0.2 1.8 0.1 1 0.1 1.9 0 1-0.1 1.9 0 0.9-0.2 1.9-0.2 0.9-0.4 1.8-0.3 0.9-0.6 1.8-0.3 0.8-0.7 1.6-0.4 0.7-0.8 1.4-0.5 0.7-1 1.4-0.5 0.7-1.1 1.3-0.6 0.5-1.2 1-0.6 0.6-1.2 1-0.7 0.5-1.4 0.8-0.7 0.4-1.4 0.7-1.6 0.7-3.2 1-1.6 0.3-3.3 0.3-1.6 0-3.3-0.4-1.6-0.3-3.1-1-0.7-0.3-1.4-0.7-0.7-0.4-1.4-0.8-0.6-0.5-1.2-1.1-0.6-0.5-1.2-1.1-0.5-0.6-1-1.3-0.5-0.6-1-1.4-0.4-0.7-0.8-1.4-0.3-0.8-0.6-1.6-0.3-0.8-0.5-1.7-0.3-0.9-0.4-1.8-0.2-0.9-0.3-1.8 0-0.9 0-1.8 0-0.9 0-1.9 0.1-0.9 0.3-1.9 0.1-0.9 0.4-1.8 0.2-0.9 0.6-1.8 0.3-0.8 0.7-1.6 0.3-0.7 0.8-1.4 0.4-0.7 1-1.4 0.5-0.6 1.1-1.3 0.5-0.5 1.1-1.1 0.6-0.5 1.3-0.9 0.7-0.5 1.4-0.9 0.7-0.4 1.4-0.7 1.5-0.6 3.1-0.9 1.6-0.3 3.2-0.3 1.7 0 3.3 0.3 1.6 0.3 3.1 0.9 0.7 0.3 1.4 0.7 0.7 0.4 1.4 0.9 0.6 0.4 1.2 1 0.6 0.5 1.2 1.1zm-3.6 24.2q0.3-0.6 0.6-1.2 0.3-0.6 0.6-1.2 0.2-0.7 0.4-1.3 0.2-0.6 0.4-1.3 0.1-0.8 0.2-1.5 0.2-0.8 0.2-1.6 0.1-0.7 0.1-1.5 0.1-0.8 0.1-1.6 0-0.8-0.1-1.6 0-0.8-0.1-1.6-0.1-0.8-0.2-1.6-0.1-0.8-0.3-1.6-0.2-0.7-0.4-1.3-0.2-0.7-0.4-1.3-0.3-0.6-0.6-1.3-0.3-0.6-0.6-1.1-0.3-0.5-0.7-1-0.4-0.4-0.8-0.8-0.4-0.4-0.9-0.8-0.4-0.3-0.9-0.6-0.6-0.3-1.1-0.5-0.6-0.3-1.2-0.4-0.5-0.1-1.1-0.2-0.6-0.1-1.2-0.1-0.7 0-1.3 0.1-0.6 0.1-1.3 0.2-0.6 0.2-1.2 0.5-0.6 0.2-1.1 0.6-0.5 0.3-1 0.7-0.5 0.4-0.9 0.8-0.4 0.5-0.8 1-0.3 0.5-0.6 1-0.3 0.6-0.6 1.2-0.3 0.6-0.5 1.2-0.2 0.6-0.4 1.3-0.2 0.6-0.3 1.3-0.2 0.7-0.3 1.4-0.1 0.8-0.2 1.5 0 0.8-0.1 1.5 0 0.8 0 1.5 0 0.8 0 1.6 0.1 0.8 0.1 1.6 0.1 0.7 0.2 1.5 0.2 0.8 0.3 1.6 0.2 0.6 0.4 1.3 0.1 0.6 0.4 1.2 0.2 0.7 0.5 1.3 0.3 0.6 0.7 1.1c0.6 1.1 1.4 2 2.4 2.7 0.9 0.8 2 1.3 3.2 1.6 1.2 0.3 2.4 0.4 3.6 0.2 1.2-0.1 2.4-0.5 3.4-1.2q0.5-0.3 1-0.6 0.5-0.4 0.9-0.8 0.4-0.5 0.8-0.9 0.4-0.5 0.7-1z"/>
		</g>
	</g>
</svg>