<svg xmlns="http://www.w3.org/2000/svg" width="381.393" height="137.482" viewBox="0 0 381.393 137.482">
  <g id="Spider_Seo_2" data-name="Spider Seo 2" transform="translate(-762.425 -292.491)">
    <path id="Path_82" data-name="Path 82" d="M743.385,420.046a54.432,54.432,0,0,1,.434,47.71c-.158.318-.318.631-.483.941l-.111.318a1.867,1.867,0,0,0,.848,2.1,1.806,1.806,0,0,0,2.068-.517,1.156,1.156,0,0,0,.2-.274c.178-.341.352-.69.517-1.034h0a59.242,59.242,0,0,0-.579-51.07c-.145-.279-.295-.558-.447-.832a.989.989,0,0,0-.132-.194,1.688,1.688,0,0,0-3.016,1.463,1.033,1.033,0,0,0,.127.344Q743.109,419.521,743.385,420.046Z" transform="translate(23.113 -81.564)" fill="#fafafa"/>
    <path id="Path_83" data-name="Path 83" d="M787.5,439.712a46.549,46.549,0,0,1,.313,37.585c-.093.2-.186.408-.282.607l-.178.794a1.393,1.393,0,0,0,.644,1.246,1.191,1.191,0,0,0,1.378-.284,1.39,1.39,0,0,0,.3-.426c.114-.24.225-.481.333-.726h0a50.673,50.673,0,0,0-.416-40.237c-.093-.194-.186-.39-.284-.582a1.337,1.337,0,0,0-.215-.32,1.229,1.229,0,0,0-1.476-.383,1.269,1.269,0,0,0-.61.918,1.84,1.84,0,0,0,.171,1.15C787.284,439.273,787.393,439.487,787.5,439.712Z" transform="translate(-9.77 -96.712)" fill="#fafafa"/>
    <path id="Path_84" data-name="Path 84" d="M812.259,285.642a54.452,54.452,0,0,1-41.793,23.02c-.354.013-.706.021-1.057.023l-.336.052a1.872,1.872,0,0,0-1.445,1.742,1.831,1.831,0,0,0,1.435,1.584,1.127,1.127,0,0,0,.333.044q.582,0,1.163-.031h0a59.22,59.22,0,0,0,44.686-24.736c.178-.258.352-.517.517-.788a1.006,1.006,0,0,0,.109-.209,1.69,1.69,0,0,0-2.727-1.957,1.115,1.115,0,0,0-.243.274C812.7,284.986,812.478,285.314,812.259,285.642Z" transform="translate(4.583 16.736)" fill="#fafafa"/>
    <path id="Path_85" data-name="Path 85" d="M809.966,684.811a54.452,54.452,0,0,0-41.793-23.02c-.352,0-.7-.018-1.055-.021l-.336-.052a1.871,1.871,0,0,1-1.445-1.742,1.831,1.831,0,0,1,1.435-1.585,1.036,1.036,0,0,1,.333-.044q.579,0,1.163.031h0a59.241,59.241,0,0,1,44.686,24.736c.176.258.352.517.517.788a1.09,1.09,0,0,1,.106.212,1.689,1.689,0,0,1-2.724,1.957,1.128,1.128,0,0,1-.258-.274C810.4,685.468,810.188,685.14,809.966,684.811Z" transform="translate(6.282 -260.944)" fill="#fafafa"/>
    <path id="Path_86" data-name="Path 86" d="M1032.725,308.227A54.417,54.417,0,0,1,990.774,285.5q-.3-.434-.589-.876l-.225-.259a1.865,1.865,0,0,0-2.246-.274,1.792,1.792,0,0,0-.558,2.068,1.128,1.128,0,0,0,.14.3c.215.321.432.641.656.962h0a59.25,59.25,0,0,0,44.962,24.232c.315,0,.631.013.946.013a1.041,1.041,0,0,0,.235-.023,1.844,1.844,0,0,0,1.577-1.6,1.874,1.874,0,0,0-1.4-1.75,1.034,1.034,0,0,0-.365-.057C1033.513,308.242,1033.12,308.237,1032.725,308.227Z" transform="translate(-158.124 16.773)" fill="#fafafa"/>
    <rect id="Rectangle_942" data-name="Rectangle 942" width="2.98" height="32.625" rx="1.49" transform="translate(822.95 292.491)" fill="#fafafa"/>
    <rect id="Rectangle_943" data-name="Rectangle 943" width="2.98" height="28.358" rx="1.49" transform="translate(822.95 401.615)" fill="#fafafa"/>
    <path id="Path_87" data-name="Path 87" d="M862.56,497.565l4.428-.943q.794,3.761,6.11,3.758a6.215,6.215,0,0,0,3.732-.962,2.875,2.875,0,0,0,1.305-2.388,3.36,3.36,0,0,0-.592-1.918,4.265,4.265,0,0,0-2.538-1.38l-4.836-1.261A11.844,11.844,0,0,1,866.5,491a5.769,5.769,0,0,1-1.9-2.326,7.367,7.367,0,0,1-.713-3.205,6.63,6.63,0,0,1,2.52-5.428A9.932,9.932,0,0,1,872.858,478a11.809,11.809,0,0,1,5.826,1.424,6.436,6.436,0,0,1,3.267,4.037l-4.332,1.075q-1-2.869-4.668-2.872a5.141,5.141,0,0,0-3.252.889,2.766,2.766,0,0,0-1.119,2.259q0,2.169,3.518,3.04l4.3,1.073q3.908.98,5.239,2.9a7.239,7.239,0,0,1,1.334,4.231,6.973,6.973,0,0,1-2.8,5.862,11.645,11.645,0,0,1-7.271,2.138,13.314,13.314,0,0,1-6.583-1.574A7.71,7.71,0,0,1,862.56,497.565Z" transform="translate(-65.812 -127.207)" fill="#fafafa"/>
    <path id="Path_88" data-name="Path 88" d="M973.069,504.762H956.64V479.48H972.9v3.753H961.2v6.852h9.409v3.668H961.2v7.082h11.872Z" transform="translate(-135.575 -128.309)" fill="#fafafa"/>
    <path id="Path_89" data-name="Path 89" d="M1040.345,503.9a9.16,9.16,0,0,1-7.8-3.758,15.162,15.162,0,0,1-2.792-9.287,14.2,14.2,0,0,1,2.965-9.184,9.548,9.548,0,0,1,7.832-3.694,9.259,9.259,0,0,1,7.754,3.694,14.7,14.7,0,0,1,2.843,9.241,14.3,14.3,0,0,1-2.957,9.406A9.661,9.661,0,0,1,1040.345,503.9Zm.036-3.647a5.185,5.185,0,0,0,4.135-2.026q1.685-2.027,1.693-7.351a13.811,13.811,0,0,0-1.4-6.79,4.66,4.66,0,0,0-4.35-2.461q-5.818,0-5.821,9.38,0,4.549,1.484,6.9a4.733,4.733,0,0,0,4.257,2.35Z" transform="translate(-189.788 -127.197)" fill="#fafafa"/>
    <path id="Path_90" data-name="Path 90" d="M841.521,337.211a46.6,46.6,0,0,1-33.452,17.166c-.225,0-.447.016-.669.021l-.776.2a1.388,1.388,0,0,0-.825,1.132,1.208,1.208,0,0,0,.874,1.1,1.4,1.4,0,0,0,.517.078c.258,0,.517-.015.8-.028h0a50.683,50.683,0,0,0,35.76-18.448c.132-.173.259-.344.393-.517a1.359,1.359,0,0,0,.189-.336,1.23,1.23,0,0,0-.321-1.491,1.277,1.277,0,0,0-1.093-.132,1.841,1.841,0,0,0-.954.669C841.821,336.823,841.674,337.017,841.521,337.211Z" transform="translate(-23.724 -21.834)" fill="#fafafa"/>
    <path id="Path_91" data-name="Path 91" d="M841.522,659.255a44.429,44.429,0,0,0-15.25-12.275,45.083,45.083,0,0,0-18.2-4.893c-.225,0-.447-.015-.669-.018l-.775-.2a1.391,1.391,0,0,1-.825-1.132,1.208,1.208,0,0,1,.874-1.1,1.348,1.348,0,0,1,.517-.078c.258,0,.517.015.8.028h0a50.683,50.683,0,0,1,35.76,18.448c.132.171.258.344.393.517a1.363,1.363,0,0,1,.189.336,1.231,1.231,0,0,1-.32,1.491,1.277,1.277,0,0,1-1.093.132,1.84,1.84,0,0,1-.954-.669C841.821,659.642,841.674,659.448,841.522,659.255Z" transform="translate(-23.724 -247.008)" fill="#fafafa"/>
    <path id="Path_92" data-name="Path 92" d="M983.134,337.356a44.428,44.428,0,0,0,15.25,12.275,44.877,44.877,0,0,0,18.2,4.893c.225,0,.447.016.669.018l.775.2a1.4,1.4,0,0,1,.825,1.132,1.207,1.207,0,0,1-.874,1.1,1.349,1.349,0,0,1-.517.078c-.259,0-.517-.015-.8-.028h0a48.638,48.638,0,0,1-19.35-5.3,48.141,48.141,0,0,1-16.408-13.149c-.134-.171-.258-.344-.4-.517a1.357,1.357,0,0,1-.189-.336,1.227,1.227,0,0,1,.32-1.489,1.292,1.292,0,0,1,1.1-.134,1.845,1.845,0,0,1,.951.669C982.836,336.968,982.984,337.162,983.134,337.356Z" transform="translate(-153.055 -21.944)" fill="#fafafa"/>
    <rect id="Rectangle_944" data-name="Rectangle 944" width="2.98" height="31.674" rx="1.49" transform="translate(762.425 329.328) rotate(-60.59)" fill="#fafafa"/>
    <rect id="Rectangle_945" data-name="Rectangle 945" width="2.98" height="34.155" rx="1.49" transform="translate(857.649 345.75) rotate(-119.41)" fill="#fafafa"/>
    <rect id="Rectangle_946" data-name="Rectangle 946" width="2.98" height="30.94" rx="1.49" transform="translate(789.554 380.472) rotate(60.59)" fill="#fafafa"/>
    <path id="Path_93" data-name="Path 93" d="M899.3,453.857a28.547,28.547,0,0,1-16.129,10.7A33.143,33.143,0,0,1,866,464.207a35.571,35.571,0,0,1-9.972-4.624c-13.518-9.047-18.729-25.54-13-38.805.318-.737.675-1.476,1.065-2.2s.858-1.5,1.344-2.231a27.333,27.333,0,0,1,1.959-2.585c.538-.633,1.109-1.241,1.7-1.809,10.13-9.92,27.039-11.231,40.341-2.342a35.46,35.46,0,0,1,8.977,8.6c.16.22.315.437.465.659" transform="translate(-49.625 -72.091)" fill="none" stroke="#231f20" stroke-width="1"/>
    <path id="Path_94" data-name="Path 94" d="M889.555,441.178a28.547,28.547,0,0,1-16.129,10.7,33.143,33.143,0,0,1-17.171-.349,35.572,35.572,0,0,1-9.972-4.624c-13.518-9.047-18.729-25.54-13-38.805.318-.737.675-1.476,1.065-2.2s.858-1.5,1.344-2.231a27.338,27.338,0,0,1,1.959-2.585c.538-.633,1.109-1.241,1.7-1.809,10.13-9.92,27.039-11.231,40.341-2.342a35.46,35.46,0,0,1,8.977,8.6c.16.22.315.437.465.659a12.323,12.323,0,0,1,2.957-.346,12.055,12.055,0,0,1,3.4.465,35.215,35.215,0,0,0-12.081-13.772,36.022,36.022,0,1,0,9.646,49.762c.235-.354.46-.706.682-1.062a13.35,13.35,0,0,1-1.9.134A12.529,12.529,0,0,1,889.555,441.178Z" transform="translate(-39.88 -59.412)" fill="#fafafa"/>
    <path id="Path_95" data-name="Path 95" d="M899.3,453.857a28.547,28.547,0,0,1-16.129,10.7A33.143,33.143,0,0,1,866,464.207a35.571,35.571,0,0,1-9.972-4.624c-13.518-9.047-18.729-25.54-13-38.805.318-.737.675-1.476,1.065-2.2s.858-1.5,1.344-2.231a27.333,27.333,0,0,1,1.959-2.585c.538-.633,1.109-1.241,1.7-1.809,10.13-9.92,27.039-11.231,40.341-2.342a35.46,35.46,0,0,1,8.977,8.6c.16.22.315.437.465.659" transform="translate(-49.625 -72.091)" fill="none" stroke="#231f20" stroke-width="1"/>
    <path id="Path_96" data-name="Path 96" d="M905.168,461.478a25.8,25.8,0,0,1-13.932,8.848,29.771,29.771,0,0,1-15.467-.315,31.964,31.964,0,0,1-8.985-4.174c-12.177-8.139-16.868-23-11.712-34.959.289-.667.61-1.331.962-1.983s.775-1.352,1.21-2.006a24.754,24.754,0,0,1,1.765-2.326c.489-.571,1-1.119,1.528-1.636,9.127-8.941,24.362-10.119,36.345-2.112a31.794,31.794,0,0,1,8.085,7.754l.142.2" transform="translate(-58.726 -80.834)" fill="none" stroke="#231f20" stroke-width="1"/>
    <path id="Path_97" data-name="Path 97" d="M1091.024,609.765l9.737,6.508a1.292,1.292,0,0,1,.556.838l-3.125,4.678a1.316,1.316,0,0,1-.987-.194l-9.737-6.508a1.31,1.31,0,0,1-.517-.708,1.293,1.293,0,0,1,.166-1.1l2.109-3.156a1.292,1.292,0,0,1,1.809-.359Z" transform="translate(-232.162 -224.752)" fill="#fafafa"/>
    <path id="Path_98" data-name="Path 98" d="M1134.785,634.39l21.454,14.346.07.184h0a11.846,11.846,0,0,1-5.25,8.452h0c-.111.018-.227.029-.339.044l-21.849-14.6a2.745,2.745,0,0,1,.16-2.388l3.319-4.965A2.875,2.875,0,0,1,1134.785,634.39Z" transform="translate(-263.146 -243.179)" fill="#fafafa" stroke="#231f20" stroke-width="1"/>
    <g id="Group_9229" data-name="Group 9229" transform="translate(-26.507 -4.274)">
      <path id="Path_99" data-name="Path 99" d="M741.948,823.785a7.973,7.973,0,0,1,1.6,2.633,9.8,9.8,0,0,1,.518,3.334,9.488,9.488,0,0,1-3.343,7.471,12.106,12.106,0,0,1-8.3,2.937,15.373,15.373,0,0,1-4.571-.71,17.346,17.346,0,0,1-3.945-1.723l-1.036,1.76h-1.924l-.336-11.7h1.947a25.941,25.941,0,0,0,1.4,3.913,13.69,13.69,0,0,0,2.129,3.268,9.627,9.627,0,0,0,2.928,2.26,8.47,8.47,0,0,0,3.885.845,8.773,8.773,0,0,0,2.9-.434,5.1,5.1,0,0,0,2.008-1.228,5.025,5.025,0,0,0,1.144-1.868,7.547,7.547,0,0,0,.373-2.47,6.854,6.854,0,0,0-1.158-3.819,7.078,7.078,0,0,0-3.441-2.685q-1.564-.626-3.581-1.4t-3.492-1.424a11.309,11.309,0,0,1-4.487-3.4,8.841,8.841,0,0,1-1.6-5.5,8.363,8.363,0,0,1,.794-3.633,9.494,9.494,0,0,1,2.26-3.007,10.272,10.272,0,0,1,3.3-1.961,11.285,11.285,0,0,1,3.969-.71,11.638,11.638,0,0,1,4.226.724,19.932,19.932,0,0,1,3.4,1.685l.985-1.639h1.928l.191,11.332h-1.952q-.523-1.947-1.191-3.735a13.121,13.121,0,0,0-1.718-3.222,7.941,7.941,0,0,0-2.526-2.227,7.471,7.471,0,0,0-3.656-.836,5.566,5.566,0,0,0-3.894,1.466,4.669,4.669,0,0,0-1.616,3.586,6.173,6.173,0,0,0,1.036,3.67,7.6,7.6,0,0,0,3.007,2.391,36.8,36.8,0,0,0,3.455,1.457c1.13.411,2.223.845,3.268,1.312a24.289,24.289,0,0,1,2.8,1.4A10.272,10.272,0,0,1,741.948,823.785Z" transform="translate(208 -453.924)" fill="#fafafa"/>
      <path id="Path_100" data-name="Path 100" d="M799.277,830.564a12.394,12.394,0,0,1,2.2,3.913,15.408,15.408,0,0,1,.78,5.089,13.592,13.592,0,0,1-.934,5.136,12.648,12.648,0,0,1-2.475,3.959,11.748,11.748,0,0,1-3.586,2.549,10.083,10.083,0,0,1-4.2.892,10.737,10.737,0,0,1-3.511-.467,8.215,8.215,0,0,1-2.241-1.13h-.191v7.139a2.84,2.84,0,0,0,.336,1.447,1.942,1.942,0,0,0,1.036.845,10.4,10.4,0,0,0,1.648.42,11.268,11.268,0,0,0,1.77.229v1.592H776.65v-1.592c.5-.028.98-.07,1.443-.117a6.921,6.921,0,0,0,1.251-.243,1.611,1.611,0,0,0,1.013-.841,3.269,3.269,0,0,0,.29-1.4V832.707a2.9,2.9,0,0,0-.364-1.4,3.071,3.071,0,0,0-.934-1.083,3.345,3.345,0,0,0-1.2-.444,11.668,11.668,0,0,0-1.494-.205v-1.587l8.1-.523.336.285v2.671l.192.051a10.444,10.444,0,0,1,3.1-2.409,7.937,7.937,0,0,1,3.679-.962,8.81,8.81,0,0,1,4.058.934A10.057,10.057,0,0,1,799.277,830.564Zm-3.922,17.061a10.74,10.74,0,0,0,1.4-3.465,19.351,19.351,0,0,0,.467-4.4,17.8,17.8,0,0,0-.383-3.633,10.353,10.353,0,0,0-1.2-3.226,6.794,6.794,0,0,0-2.139-2.26,5.67,5.67,0,0,0-3.18-.868,5.6,5.6,0,0,0-3.03.785,9.285,9.285,0,0,0-2.167,1.868v14.007a5.378,5.378,0,0,0,.71,1.345,6.355,6.355,0,0,0,1.1,1.2,6.76,6.76,0,0,0,1.611.971,5.29,5.29,0,0,0,2.115.373,5.169,5.169,0,0,0,2.6-.71,5.962,5.962,0,0,0,2.1-1.989Z" transform="translate(178.126 -465.951)" fill="#fafafa"/>
      <path id="Path_101" data-name="Path 101" d="M849.68,837.685H838.227v-1.592l1.144-.093a4.582,4.582,0,0,0,1.023-.191,1.723,1.723,0,0,0,.995-.756,2.693,2.693,0,0,0,.327-1.4V819.009a2.867,2.867,0,0,0-.35-1.4,3.08,3.08,0,0,0-.971-1.069,4.5,4.5,0,0,0-1.326-.495,9.9,9.9,0,0,0-1.588-.252v-1.6l8.372-.528.341.336v19.335a2.745,2.745,0,0,0,.322,1.4,1.91,1.91,0,0,0,1.013.817,8.094,8.094,0,0,0,1.027.35,5.986,5.986,0,0,0,1.125.177Zm-3.007-33.375a3.507,3.507,0,0,1-.906,2.4,2.839,2.839,0,0,1-2.223,1.023,2.8,2.8,0,0,1-2.129-.976,3.185,3.185,0,0,1-.906-2.227,3.315,3.315,0,0,1,.906-2.307,2.8,2.8,0,0,1,2.129-.99,2.984,2.984,0,0,1,2.25.934A3.04,3.04,0,0,1,846.674,804.31Z" transform="translate(144.527 -452.16)" fill="#fafafa"/>
      <path id="Path_102" data-name="Path 102" d="M895.894,836.319l-8.3.528-.359-.336V834.3l-.191-.047a9.868,9.868,0,0,1-3.091,2.283,8.577,8.577,0,0,1-3.782.892,8.992,8.992,0,0,1-3.9-.9,9.836,9.836,0,0,1-3.268-2.54,12.545,12.545,0,0,1-2.246-3.992,15.354,15.354,0,0,1-.831-5.136,13.453,13.453,0,0,1,.892-4.884,12.863,12.863,0,0,1,2.451-4.043,10.827,10.827,0,0,1,3.591-2.577,10.454,10.454,0,0,1,4.31-.976,12.726,12.726,0,0,1,3.268.42,11.85,11.85,0,0,1,2.755,1.074V805.6a4.88,4.88,0,0,0-.341-1.868,2.8,2.8,0,0,0-.934-1.265,4.634,4.634,0,0,0-1.816-.663,23.085,23.085,0,0,0-2.465-.3v-1.49l9.721-.532.36.364v32a2.887,2.887,0,0,0,.327,1.429,2.8,2.8,0,0,0,.934,1,2.982,2.982,0,0,0,1.326.36c.579.047,1.107.079,1.588.1Zm-8.708-4.165V818.273a6.565,6.565,0,0,0-.626-1.349,6.025,6.025,0,0,0-1.083-1.321,6.169,6.169,0,0,0-1.629-1,5.545,5.545,0,0,0-2.185-.4,4.953,4.953,0,0,0-2.657.747,7.087,7.087,0,0,0-2.148,2.138,11.122,11.122,0,0,0-1.4,3.432,19.071,19.071,0,0,0-.518,4.608,16.113,16.113,0,0,0,.388,3.665,9.588,9.588,0,0,0,1.3,3.068,6.616,6.616,0,0,0,2.148,2.167,5.743,5.743,0,0,0,3.11.817,5.6,5.6,0,0,0,3.18-.84,10.272,10.272,0,0,0,2.125-1.854Z" transform="translate(126.817 -451.228)" fill="#fafafa"/>
      <path id="Path_103" data-name="Path 103" d="M951.592,845.889a12.163,12.163,0,0,1-4,4.524,10.057,10.057,0,0,1-5.748,1.686,11.735,11.735,0,0,1-5.029-1.013,9.9,9.9,0,0,1-3.549-2.741,11.619,11.619,0,0,1-2.054-4.02,17.076,17.076,0,0,1-.686-4.884,14.386,14.386,0,0,1,.733-4.538,12.864,12.864,0,0,1,2.153-4.006,10.469,10.469,0,0,1,3.4-2.755,9.859,9.859,0,0,1,4.562-1.046,11.027,11.027,0,0,1,4.45.817,7.91,7.91,0,0,1,3.007,2.241,8.9,8.9,0,0,1,1.648,3.175,13.8,13.8,0,0,1,.542,3.969v1.588H935.3a18.562,18.562,0,0,0,.467,4.244,10.131,10.131,0,0,0,1.4,3.352,6.7,6.7,0,0,0,2.451,2.185,7.587,7.587,0,0,0,3.609.808,6.677,6.677,0,0,0,3.693-1,9.875,9.875,0,0,0,2.993-3.619Zm-5.318-9.035a19.38,19.38,0,0,0-.229-2.876,8.931,8.931,0,0,0-.733-2.568,4.86,4.86,0,0,0-1.517-1.8,4.1,4.1,0,0,0-2.475-.7,5.169,5.169,0,0,0-4.2,2.1,9.79,9.79,0,0,0-1.816,5.841Z" transform="translate(93.91 -465.948)" fill="#fafafa"/>
      <path id="Path_104" data-name="Path 104" d="M999.358,830.866a3.97,3.97,0,0,1-.6,2.176,2.036,2.036,0,0,1-1.868.934,2.8,2.8,0,0,1-2.059-.7,2.119,2.119,0,0,1-.71-1.536,5.1,5.1,0,0,1,.084-.966c.056-.285.107-.574.154-.864a5.328,5.328,0,0,0-2.647.934,7.817,7.817,0,0,0-2.573,2.6V847.25a2.563,2.563,0,0,0,.327,1.373,1.947,1.947,0,0,0,1.023.794,6.451,6.451,0,0,0,1.55.36c.635.084,1.181.14,1.648.168v1.592H981.172v-1.573l1.144-.093a4.592,4.592,0,0,0,1.022-.191,1.732,1.732,0,0,0,1-.756,2.741,2.741,0,0,0,.327-1.4V832.878a3.318,3.318,0,0,0-.35-1.466,2.946,2.946,0,0,0-.976-1.153,3.268,3.268,0,0,0-1.083-.42,9.542,9.542,0,0,0-1.345-.182v-1.592l7.891-.528.336.336v3.343h.121a10.859,10.859,0,0,1,3.32-2.96,7.031,7.031,0,0,1,3.343-1.009,3.268,3.268,0,0,1,2.47.985,3.669,3.669,0,0,1,.967,2.633Z" transform="translate(66.559 -466.029)" fill="#fafafa"/>
      <path id="Path_105" data-name="Path 105" d="M1072.683,823.785a7.975,7.975,0,0,1,1.6,2.633,9.9,9.9,0,0,1,.514,3.334,9.474,9.474,0,0,1-3.343,7.471,12.085,12.085,0,0,1-8.3,2.937,15.408,15.408,0,0,1-4.571-.71,17.449,17.449,0,0,1-3.945-1.723l-1.037,1.76h-1.924l-.336-11.7h1.947a25.931,25.931,0,0,0,1.4,3.913,13.688,13.688,0,0,0,2.129,3.268,9.613,9.613,0,0,0,2.923,2.26,8.484,8.484,0,0,0,3.885.845,8.77,8.77,0,0,0,2.9-.434,5.136,5.136,0,0,0,2.012-1.228,5.016,5.016,0,0,0,1.139-1.868,7.423,7.423,0,0,0,.374-2.47,6.849,6.849,0,0,0-1.153-3.819,7.1,7.1,0,0,0-3.441-2.685q-1.564-.626-3.586-1.4c-1.345-.5-2.512-.976-3.488-1.424a11.276,11.276,0,0,1-4.487-3.4,8.823,8.823,0,0,1-1.6-5.5,8.43,8.43,0,0,1,.794-3.633,9.515,9.515,0,0,1,2.265-3.007,10.231,10.231,0,0,1,3.3-1.961,11.266,11.266,0,0,1,3.969-.71,11.614,11.614,0,0,1,4.2.724,19.753,19.753,0,0,1,3.4,1.686l.99-1.639h1.924l.191,11.332h-1.947q-.532-1.947-1.191-3.735a13.3,13.3,0,0,0-1.723-3.222,7.9,7.9,0,0,0-2.526-2.227,7.472,7.472,0,0,0-3.656-.827,5.571,5.571,0,0,0-3.9,1.466,4.669,4.669,0,0,0-1.611,3.586,6.205,6.205,0,0,0,1.032,3.67,7.615,7.615,0,0,0,3.012,2.391,36.677,36.677,0,0,0,3.45,1.457c1.13.411,2.227.845,3.268,1.312a24.337,24.337,0,0,1,2.8,1.4A10.5,10.5,0,0,1,1072.683,823.785Z" transform="translate(28.212 -453.924)" fill="#fafafa"/>
      <path id="Path_106" data-name="Path 106" d="M1139.135,830.274l-.654,10.062H1110.14v-1.709c.467-.033,1.121-.1,1.924-.205a6.4,6.4,0,0,0,1.564-.327,2.167,2.167,0,0,0,1.069-.934,3.147,3.147,0,0,0,.3-1.466V811.149a3.519,3.519,0,0,0-.266-1.4,2.069,2.069,0,0,0-1.106-1,8.279,8.279,0,0,0-1.742-.551,13.614,13.614,0,0,0-1.746-.289V806.2h26.418v8.218h-1.8a11.169,11.169,0,0,0-2.083-3.885,5.158,5.158,0,0,0-3.044-2.25c-.5-.061-1.093-.112-1.779-.14s-1.475-.051-2.335-.051h-5.37v13.573H1124a7.66,7.66,0,0,0,2.708-.35,3.737,3.737,0,0,0,1.5-1.167,6.305,6.305,0,0,0,.9-1.868,12.149,12.149,0,0,0,.495-2.2h1.8v13.377h-1.8a10.852,10.852,0,0,0-.518-2.442,6.2,6.2,0,0,0-.878-1.868,3.478,3.478,0,0,0-1.7-1.228,8.967,8.967,0,0,0-2.516-.289h-3.852V833.86a10.7,10.7,0,0,0,.219,2.428,2.282,2.282,0,0,0,.84,1.345,3.655,3.655,0,0,0,1.709.588,27.16,27.16,0,0,0,3.082.131h2.092a20.444,20.444,0,0,0,2.19-.1,12.562,12.562,0,0,0,1.868-.346,2.884,2.884,0,0,0,1.4-.686,15.3,15.3,0,0,0,2.334-3.5,23.617,23.617,0,0,0,1.555-3.455Z" transform="translate(-4.685 -454.811)" fill="#fafafa"/>
      <path id="Path_107" data-name="Path 107" d="M1206.782,809.256a16.771,16.771,0,0,1,3.539,5.692,20.465,20.465,0,0,1,1.275,7.373,20.159,20.159,0,0,1-1.3,7.387,16.453,16.453,0,0,1-3.609,5.654,15.71,15.71,0,0,1-5.2,3.563,16.7,16.7,0,0,1-12.887-.084,15.275,15.275,0,0,1-5.183-3.735,16.84,16.84,0,0,1-3.409-5.668,20.3,20.3,0,0,1-1.237-7.134,19.993,19.993,0,0,1,1.3-7.424,17.378,17.378,0,0,1,3.586-5.64,15.473,15.473,0,0,1,5.257-3.609,16.51,16.51,0,0,1,12.667,0A15.237,15.237,0,0,1,1206.782,809.256Zm-3.586,24.2a15.948,15.948,0,0,0,1.966-4.959,28.8,28.8,0,0,0,.612-6.182,28.306,28.306,0,0,0-.686-6.448,16.008,16.008,0,0,0-2.008-5.005,9.617,9.617,0,0,0-3.32-3.189,9.069,9.069,0,0,0-4.576-1.139,8.764,8.764,0,0,0-4.907,1.321,10.3,10.3,0,0,0-3.3,3.535,16.976,16.976,0,0,0-1.793,4.959,29.346,29.346,0,0,0-.588,5.967,28.787,28.787,0,0,0,.626,6.257,15.727,15.727,0,0,0,1.975,4.954,9.158,9.158,0,0,0,12.607,3.31A9.337,9.337,0,0,0,1203.2,833.461Z" transform="translate(-41.273 -453.832)" fill="#fafafa"/>
    </g>
  </g>
</svg>
